<svg width="27" height="16" viewBox="0 0 27 16" fill="none" xmlns="http://www.w3.org/2000/svg">
<path d="M27 7.98645C22.814 11.0151 19.6745 15.9567 13.6049 15.9567C9.09667 15.9567 9.62797 12.7071 9.62797 8.30526C9.62797 3.90344 9.11519 -0.294584 13.6049 0.0162536C20.5117 0.49444 23.6512 5.43599 27 7.98645Z" fill="#36C8F6"/>
<path d="M-4.95911e-05 7.98645C4.186 4.95779 7.32553 0.0162449 13.3951 0.0162449C17.9033 0.0162449 17.372 3.26582 17.372 7.66764C17.372 12.0695 17.8848 16.2675 13.3951 15.9566C6.48832 15.4785 3.34879 10.5369 -4.95911e-05 7.98645Z" fill="#36C8F6"/>
<ellipse cx="13.3953" cy="7.9864" rx="5.02326" ry="3.8257" fill="#194FC6"/>
</svg>
