<svg width="28" height="17" viewBox="0 0 28 17" fill="none" xmlns="http://www.w3.org/2000/svg">
<path d="M27 8.98597C22.8139 12.0146 19.6744 16.9562 13.6048 16.9562C9.09661 16.9562 9.62791 13.7066 9.62791 9.30477C9.62791 4.90295 9.11513 0.704927 13.6048 1.01577C20.5116 1.49395 23.6512 6.4355 27 8.98597Z" fill="#36C8F6"/>
<path d="M-4.95911e-05 8.98596C4.186 5.95731 7.32553 1.01576 13.3951 1.01576C17.9033 1.01576 17.372 4.26533 17.372 8.66715C17.372 13.069 17.8848 17.267 13.3951 16.9562C6.48832 16.478 3.34879 11.5364 -4.95911e-05 8.98596Z" fill="#36C8F6"/>
<ellipse cx="13.3953" cy="8.98598" rx="5.02326" ry="3.8257" fill="#194FC6" fill-opacity="0.56"/>
<rect x="5.84259" y="6.93164" width="4.31475" height="13.0858" transform="rotate(-61.6025 5.84259 6.93164)" fill="#36C8F6"/>
<line x1="0.71115" y1="1.67881" x2="26.7111" y2="15.6788" stroke="#194FC6" stroke-width="3"/>
</svg>
