<svg width="238" height="232" viewBox="0 0 238 232" fill="none" xmlns="http://www.w3.org/2000/svg">
<circle cx="116" cy="116" r="115" fill="white" stroke="#0000FF" stroke-width="2"/>
<g filter="url(#filter0_d_365_116)">
<path d="M90.8434 102.024H110.41V171.904H90.8434V102.024Z" fill="#0000FF"/>
<path d="M90.8434 89.9581C90.8434 85.816 94.2012 82.4581 98.3434 82.4581H128.578V102.024H90.8434V89.9581Z" fill="#0000FF"/>
<path d="M220 86.0116C225.333 89.0908 225.333 96.7888 220 99.868L127.651 153.186C122.317 156.265 115.651 152.416 115.651 146.258L115.651 39.6218C115.651 33.4634 122.317 29.6144 127.651 32.6936L220 86.0116Z" fill="#0000FF"/>
<path d="M175.892 90.5088C177.225 91.2786 177.225 93.2031 175.892 93.9729L144.157 112.295C142.823 113.065 141.157 112.103 141.157 110.563L141.157 73.9187C141.157 72.3791 142.823 71.4168 144.157 72.1866L175.892 90.5088Z" fill="white"/>
<path d="M34.1473 188.595C64.1439 221.318 105.029 202.392 110.41 171.904L91.5376 168.867C89.7442 176.938 80.7769 187.698 67.3261 185.905C56.5654 184.47 42.2178 179.628 42.2178 148.242C42.2178 123.134 60.1523 117.455 69.1195 117.754V100.716C47.5981 99.8191 29.6637 110.58 23.3866 132.998C16.9568 155.962 24.2833 177.834 34.1473 188.595Z" fill="url(#paint0_linear_365_116)"/>
</g>
<defs>
<filter id="filter0_d_365_116" x="16.9639" y="30.6099" width="221.036" height="192.126" filterUnits="userSpaceOnUse" color-interpolation-filters="sRGB">
<feFlood flood-opacity="0" result="BackgroundImageFix"/>
<feColorMatrix in="SourceAlpha" type="matrix" values="0 0 0 0 0 0 0 0 0 0 0 0 0 0 0 0 0 0 127 0" result="hardAlpha"/>
<feOffset dx="5" dy="8"/>
<feGaussianBlur stdDeviation="4.5"/>
<feComposite in2="hardAlpha" operator="out"/>
<feColorMatrix type="matrix" values="0 0 0 0 0 0 0 0 0 0 0 0 0 0 0 0 0 0 0.56 0"/>
<feBlend mode="normal" in2="BackgroundImageFix" result="effect1_dropShadow_365_116"/>
<feBlend mode="normal" in="SourceGraphic" in2="effect1_dropShadow_365_116" result="shape"/>
</filter>
<linearGradient id="paint0_linear_365_116" x1="76.1687" y1="96.4339" x2="77.5663" y2="180.289" gradientUnits="userSpaceOnUse">
<stop stop-color="#00BFFF"/>
<stop offset="1" stop-color="#0000FF"/>
</linearGradient>
</defs>
</svg>
