<svg width="180" height="180" viewBox="0 0 180 180" fill="none" xmlns="http://www.w3.org/2000/svg">
<circle cx="90" cy="90" r="85.5" fill="white" stroke="white" stroke-width="9"/>
<path d="M78 71H92V121H78V71Z" fill="#0000FF"/>
<path d="M78 64.5C78 60.3579 81.3579 57 85.5 57H105V71H78V64.5Z" fill="#0000FF"/>
<path d="M155 59.0717C160.333 62.1509 160.333 69.8489 155 72.9281L111.5 98.0428C106.167 101.122 99.5 97.273 99.5 91.1146L99.5 40.8851C99.5 34.7267 106.167 30.8777 111.5 33.9569L155 59.0717Z" fill="#0000FF"/>
<path d="M133 63.768C134.333 64.5378 134.333 66.4623 133 67.2321L117.25 76.3253C115.917 77.0951 114.25 76.1329 114.25 74.5933L114.25 56.4067C114.25 54.8671 115.917 53.9049 117.25 54.6747L133 63.768Z" fill="white"/>
<path d="M37.433 132.943C58.8961 156.357 88.1503 142.815 92 121L78.4967 118.827C77.2135 124.602 70.7973 132.301 61.1729 131.018C53.4735 129.991 43.2075 126.526 43.2075 104.07C43.2075 86.1043 56.04 82.0407 62.4562 82.2546V70.0638C47.0573 69.4221 34.2249 77.1216 29.7335 93.1621C25.1329 109.593 30.3751 125.243 37.433 132.943Z" fill="url(#paint0_linear_362_139)"/>
<path d="M49.1591 112.103C48.8111 112.103 48.5009 112.043 48.2287 111.922C47.9564 111.799 47.741 111.618 47.5824 111.379C47.4261 111.137 47.348 110.836 47.348 110.477C47.348 110.174 47.4036 109.919 47.5149 109.713C47.6262 109.507 47.7777 109.341 47.9695 109.216C48.1612 109.09 48.379 108.996 48.6229 108.932C48.8691 108.868 49.1271 108.823 49.397 108.797C49.7143 108.764 49.9699 108.733 50.1641 108.705C50.3582 108.674 50.4991 108.629 50.5866 108.57C50.6742 108.51 50.718 108.423 50.718 108.307V108.286C50.718 108.061 50.647 107.887 50.505 107.763C50.3653 107.64 50.1664 107.579 49.9084 107.579C49.6361 107.579 49.4195 107.639 49.2585 107.76C49.0975 107.878 48.991 108.027 48.9389 108.207L47.5398 108.094C47.6108 107.762 47.7505 107.476 47.9588 107.234C48.1671 106.991 48.4358 106.804 48.7649 106.673C49.0964 106.541 49.4799 106.474 49.9155 106.474C50.2185 106.474 50.5085 106.51 50.7855 106.581C51.0649 106.652 51.3123 106.762 51.5277 106.911C51.7455 107.06 51.9171 107.252 52.0426 107.487C52.1681 107.719 52.2308 107.997 52.2308 108.321V112H50.7962V111.244H50.7536C50.666 111.414 50.5488 111.564 50.402 111.695C50.2552 111.822 50.0788 111.923 49.8729 111.996C49.6669 112.067 49.429 112.103 49.1591 112.103ZM49.5923 111.059C49.8149 111.059 50.0114 111.015 50.1818 110.928C50.3523 110.838 50.486 110.717 50.5831 110.565C50.6802 110.414 50.7287 110.242 50.7287 110.05V109.472C50.6813 109.502 50.6162 109.531 50.5334 109.557C50.4529 109.58 50.3617 109.603 50.2599 109.624C50.1581 109.643 50.0563 109.661 49.9545 109.678C49.8527 109.692 49.7604 109.705 49.6776 109.717C49.5 109.743 49.3449 109.784 49.2124 109.841C49.0798 109.898 48.9768 109.975 48.9034 110.072C48.83 110.166 48.7933 110.285 48.7933 110.427C48.7933 110.633 48.8679 110.79 49.017 110.899C49.1686 111.006 49.3603 111.059 49.5923 111.059ZM53.4045 112V106.545H54.8711V107.497H54.9279C55.0273 107.159 55.1942 106.903 55.4286 106.73C55.663 106.555 55.9329 106.467 56.2383 106.467C56.314 106.467 56.3957 106.472 56.4833 106.482C56.5709 106.491 56.6478 106.504 56.7141 106.521V107.863C56.6431 107.842 56.5449 107.823 56.4194 107.806C56.2939 107.79 56.1791 107.781 56.0749 107.781C55.8524 107.781 55.6535 107.83 55.4783 107.927C55.3055 108.022 55.1682 108.154 55.0664 108.325C54.967 108.495 54.9173 108.692 54.9173 108.914V112H53.4045ZM59.7282 112.107C59.1671 112.107 58.6841 111.993 58.2793 111.766C57.8768 111.536 57.5667 111.212 57.3489 110.793C57.1311 110.371 57.0222 109.873 57.0222 109.298C57.0222 108.737 57.1311 108.244 57.3489 107.82C57.5667 107.397 57.8733 107.066 58.2686 106.83C58.6664 106.593 59.1328 106.474 59.6678 106.474C60.0276 106.474 60.3626 106.532 60.6728 106.648C60.9853 106.762 61.2575 106.934 61.4895 107.163C61.7239 107.393 61.9062 107.682 62.0364 108.03C62.1666 108.375 62.2317 108.78 62.2317 109.244V109.66H57.6259V108.722H60.8077C60.8077 108.504 60.7604 108.312 60.6657 108.143C60.571 107.975 60.4396 107.844 60.2715 107.749C60.1058 107.652 59.9128 107.604 59.6926 107.604C59.463 107.604 59.2594 107.657 59.0819 107.763C58.9067 107.868 58.7694 108.009 58.6699 108.186C58.5705 108.361 58.5196 108.557 58.5172 108.772V109.663C58.5172 109.933 58.5669 110.166 58.6664 110.363C58.7682 110.559 58.9114 110.711 59.0961 110.817C59.2807 110.924 59.4997 110.977 59.753 110.977C59.9211 110.977 60.075 110.954 60.2147 110.906C60.3543 110.859 60.4739 110.788 60.5733 110.693C60.6728 110.598 60.7485 110.482 60.8006 110.345L62.1998 110.438C62.1287 110.774 61.9831 111.067 61.763 111.318C61.5452 111.567 61.2634 111.761 60.9178 111.901C60.5745 112.038 60.178 112.107 59.7282 112.107ZM65.7047 112.107C65.1436 112.107 64.6607 111.993 64.2559 111.766C63.8534 111.536 63.5433 111.212 63.3255 110.793C63.1077 110.371 62.9988 109.873 62.9988 109.298C62.9988 108.737 63.1077 108.244 63.3255 107.82C63.5433 107.397 63.8498 107.066 64.2452 106.83C64.6429 106.593 65.1093 106.474 65.6444 106.474C66.0042 106.474 66.3392 106.532 66.6493 106.648C66.9618 106.762 67.2341 106.934 67.4661 107.163C67.7005 107.393 67.8828 107.682 68.013 108.03C68.1432 108.375 68.2083 108.78 68.2083 109.244V109.66H63.6025V108.722H66.7843C66.7843 108.504 66.7369 108.312 66.6422 108.143C66.5475 107.975 66.4161 107.844 66.248 107.749C66.0823 107.652 65.8894 107.604 65.6692 107.604C65.4396 107.604 65.236 107.657 65.0584 107.763C64.8832 107.868 64.7459 108.009 64.6465 108.186C64.5471 108.361 64.4962 108.557 64.4938 108.772V109.663C64.4938 109.933 64.5435 110.166 64.6429 110.363C64.7447 110.559 64.888 110.711 65.0726 110.817C65.2573 110.924 65.4763 110.977 65.7296 110.977C65.8977 110.977 66.0516 110.954 66.1912 110.906C66.3309 110.859 66.4505 110.788 66.5499 110.693C66.6493 110.598 66.7251 110.482 66.7772 110.345L68.1763 110.438C68.1053 110.774 67.9597 111.067 67.7395 111.318C67.5217 111.567 67.24 111.761 66.8944 111.901C66.5511 112.038 66.1545 112.107 65.7047 112.107ZM69.1955 112V106.545H70.6621V107.497H70.7189C70.8184 107.159 70.9853 106.903 71.2196 106.73C71.454 106.555 71.7239 106.467 72.0293 106.467C72.1051 106.467 72.1867 106.472 72.2743 106.482C72.3619 106.491 72.4389 106.504 72.5051 106.521V107.863C72.4341 107.842 72.3359 107.823 72.2104 107.806C72.0849 107.79 71.9701 107.781 71.8659 107.781C71.6434 107.781 71.4445 107.83 71.2694 107.927C71.0965 108.022 70.9592 108.154 70.8574 108.325C70.758 108.495 70.7083 108.692 70.7083 108.914V112H69.1955Z" fill="#0000FF"/>
<path d="M96.6037 114.045V106.545H98.0952V107.462H98.1626C98.2289 107.315 98.3248 107.166 98.4503 107.014C98.5781 106.86 98.7438 106.732 98.9474 106.631C99.1534 106.527 99.4091 106.474 99.7145 106.474C100.112 106.474 100.479 106.579 100.815 106.787C101.152 106.993 101.42 107.304 101.621 107.721C101.823 108.135 101.923 108.655 101.923 109.28C101.923 109.888 101.825 110.402 101.629 110.821C101.434 111.238 101.169 111.554 100.833 111.769C100.499 111.982 100.125 112.089 99.7109 112.089C99.4174 112.089 99.1676 112.04 98.9616 111.943C98.758 111.846 98.5911 111.724 98.4609 111.577C98.3307 111.428 98.2313 111.278 98.1626 111.126H98.1165V114.045H96.6037ZM98.0845 109.273C98.0845 109.597 98.1295 109.88 98.2195 110.121C98.3094 110.363 98.4396 110.551 98.6101 110.686C98.7805 110.819 98.9877 110.885 99.2315 110.885C99.4777 110.885 99.6861 110.817 99.8565 110.683C100.027 110.545 100.156 110.356 100.244 110.114C100.334 109.871 100.379 109.59 100.379 109.273C100.379 108.958 100.335 108.681 100.247 108.442C100.16 108.203 100.031 108.016 99.8601 107.881C99.6896 107.746 99.4801 107.678 99.2315 107.678C98.9853 107.678 98.777 107.743 98.6065 107.874C98.4384 108.004 98.3094 108.188 98.2195 108.428C98.1295 108.667 98.0845 108.948 98.0845 109.273ZM104.487 112.103C104.139 112.103 103.829 112.043 103.557 111.922C103.285 111.799 103.069 111.618 102.911 111.379C102.754 111.137 102.676 110.836 102.676 110.477C102.676 110.174 102.732 109.919 102.843 109.713C102.954 109.507 103.106 109.341 103.298 109.216C103.489 109.09 103.707 108.996 103.951 108.932C104.197 108.868 104.455 108.823 104.725 108.797C105.042 108.764 105.298 108.733 105.492 108.705C105.686 108.674 105.827 108.629 105.915 108.57C106.002 108.51 106.046 108.423 106.046 108.307V108.286C106.046 108.061 105.975 107.887 105.833 107.763C105.693 107.64 105.495 107.579 105.237 107.579C104.964 107.579 104.748 107.639 104.587 107.76C104.426 107.878 104.319 108.027 104.267 108.207L102.868 108.094C102.939 107.762 103.079 107.476 103.287 107.234C103.495 106.991 103.764 106.804 104.093 106.673C104.424 106.541 104.808 106.474 105.244 106.474C105.547 106.474 105.837 106.51 106.114 106.581C106.393 106.652 106.64 106.762 106.856 106.911C107.074 107.06 107.245 107.252 107.371 107.487C107.496 107.719 107.559 107.997 107.559 108.321V112H106.124V111.244H106.082C105.994 111.414 105.877 111.564 105.73 111.695C105.583 111.822 105.407 111.923 105.201 111.996C104.995 112.067 104.757 112.103 104.487 112.103ZM104.92 111.059C105.143 111.059 105.339 111.015 105.51 110.928C105.68 110.838 105.814 110.717 105.911 110.565C106.008 110.414 106.057 110.242 106.057 110.05V109.472C106.009 109.502 105.944 109.531 105.862 109.557C105.781 109.58 105.69 109.603 105.588 109.624C105.486 109.643 105.384 109.661 105.283 109.678C105.181 109.692 105.089 109.705 105.006 109.717C104.828 109.743 104.673 109.784 104.54 109.841C104.408 109.898 104.305 109.975 104.232 110.072C104.158 110.166 104.121 110.285 104.121 110.427C104.121 110.633 104.196 110.79 104.345 110.899C104.497 111.006 104.688 111.059 104.92 111.059ZM111.634 106.545V107.682H108.349V106.545H111.634ZM109.095 105.239H110.608V110.324C110.608 110.464 110.629 110.572 110.672 110.651C110.714 110.726 110.773 110.78 110.849 110.81C110.927 110.841 111.017 110.857 111.119 110.857C111.19 110.857 111.261 110.851 111.332 110.839C111.403 110.825 111.458 110.814 111.495 110.807L111.733 111.933C111.658 111.956 111.551 111.983 111.414 112.014C111.276 112.047 111.109 112.067 110.913 112.075C110.548 112.089 110.229 112.04 109.954 111.929C109.682 111.818 109.47 111.645 109.319 111.411C109.167 111.176 109.092 110.88 109.095 110.523V105.239ZM114.249 108.847V112H112.737V104.727H114.207V107.508H114.271C114.394 107.186 114.593 106.934 114.867 106.751C115.142 106.567 115.486 106.474 115.901 106.474C116.279 106.474 116.61 106.557 116.891 106.723C117.175 106.886 117.396 107.122 117.552 107.43C117.71 107.735 117.789 108.101 117.786 108.527V112H116.273V108.797C116.276 108.461 116.191 108.199 116.018 108.012C115.847 107.825 115.608 107.732 115.3 107.732C115.094 107.732 114.912 107.775 114.754 107.863C114.597 107.951 114.474 108.078 114.384 108.246C114.297 108.412 114.252 108.612 114.249 108.847ZM123.515 108.101L122.13 108.186C122.106 108.068 122.056 107.961 121.977 107.866C121.899 107.769 121.796 107.692 121.669 107.636C121.543 107.576 121.393 107.547 121.218 107.547C120.983 107.547 120.785 107.597 120.624 107.696C120.463 107.793 120.383 107.923 120.383 108.087C120.383 108.217 120.435 108.327 120.539 108.417C120.643 108.507 120.822 108.579 121.075 108.634L122.063 108.832C122.593 108.941 122.988 109.116 123.249 109.358C123.509 109.599 123.639 109.917 123.639 110.31C123.639 110.667 123.534 110.981 123.323 111.251C123.115 111.521 122.829 111.731 122.464 111.883C122.102 112.032 121.684 112.107 121.21 112.107C120.488 112.107 119.913 111.956 119.485 111.656C119.058 111.353 118.809 110.941 118.735 110.42L120.223 110.342C120.268 110.562 120.377 110.73 120.55 110.846C120.723 110.96 120.944 111.016 121.214 111.016C121.479 111.016 121.692 110.965 121.853 110.864C122.017 110.759 122.099 110.626 122.102 110.462C122.099 110.325 122.041 110.213 121.928 110.125C121.814 110.035 121.639 109.966 121.402 109.919L120.458 109.731C119.925 109.624 119.528 109.44 119.268 109.177C119.01 108.914 118.881 108.579 118.881 108.172C118.881 107.821 118.976 107.52 119.165 107.266C119.357 107.013 119.625 106.818 119.971 106.68C120.319 106.543 120.726 106.474 121.193 106.474C121.882 106.474 122.424 106.62 122.819 106.911C123.217 107.202 123.449 107.599 123.515 108.101Z" fill="#0000FF"/>
<defs>
<linearGradient id="paint0_linear_362_139" x1="67.5" y1="66.9999" x2="68.5" y2="127" gradientUnits="userSpaceOnUse">
<stop stop-color="#00BFFF"/>
<stop offset="1" stop-color="#0000FF"/>
</linearGradient>
</defs>
</svg>
