<svg width="234" height="259" viewBox="0 0 234 259" fill="none" xmlns="http://www.w3.org/2000/svg">
<rect width="234" height="259" rx="55" fill="white"/>
<path d="M22 90H148L148.5 115.5H53V187.5C69 221 103 205 103 187.5H134C134 199 120.5 238.5 77 235.5C37.8909 232.803 26 203.667 22 187.5V90Z" fill="#0000FF" stroke="#0000FF"/>
<path fill-rule="evenodd" clip-rule="evenodd" d="M176 19H133V43H104.5V115.5H176C188.167 111.667 212.4 96.3 212 65.5C211.6 34.7 187.833 21.6667 176 19ZM133 43V90H161.5C168 89.3333 180.9 84.3 180.5 65.5C180.112 47.2473 168.695 44.6422 162.082 43.1332C161.883 43.0879 161.689 43.0437 161.5 43H133Z" fill="#36C8F6"/>
<path d="M133 43H104.5V115.5H176C188.167 111.667 212.4 96.3 212 65.5C211.6 34.7 187.833 21.6667 176 19H133V43ZM133 43H161.5C161.689 43.0437 161.883 43.0879 162.082 43.1332C168.695 44.6422 180.112 47.2473 180.5 65.5C180.9 84.3 168 89.3333 161.5 90H133V43Z" stroke="#36C8F6"/>
<path d="M133.5 161.5V115.5H104.5V161.5H133.5Z" fill="#36C8F6" stroke="#36C8F6"/>
<line x1="111" y1="149.5" x2="128" y2="149.5" stroke="#0000FF" stroke-width="5"/>
<line x1="111" y1="159.5" x2="128" y2="159.5" stroke="#0000FF" stroke-width="5"/>
<line x1="111" y1="129.5" x2="128" y2="129.5" stroke="#0000FF" stroke-width="5"/>
<line x1="111" y1="139.5" x2="128" y2="139.5" stroke="#0000FF" stroke-width="5"/>
<line x1="111" y1="109.5" x2="128" y2="109.5" stroke="#0000FF" stroke-width="5"/>
<line x1="111" y1="119.5" x2="128" y2="119.5" stroke="#0000FF" stroke-width="5"/>
<line x1="111" y1="89.5" x2="128" y2="89.5" stroke="#0000FF" stroke-width="5"/>
<line x1="111" y1="99.5" x2="128" y2="99.5" stroke="#0000FF" stroke-width="5"/>
<line x1="111" y1="67.5" x2="128" y2="67.5" stroke="#0000FF" stroke-width="5"/>
<line x1="111" y1="77.5" x2="128" y2="77.5" stroke="#0000FF" stroke-width="5"/>
<line x1="111" y1="47.5" x2="128" y2="47.5" stroke="#0000FF" stroke-width="5"/>
<line x1="111" y1="57.5" x2="128" y2="57.5" stroke="#0000FF" stroke-width="5"/>
<path d="M180.5 152L196.521 182H164.479L180.5 152Z" fill="#36C8F6"/>
</svg>
